# xmcd CD database file
#
# Track frame offsets:
#	150
#	28120
#	51134
#	81026
#	99549
#	134269
#	156549
#	203623
#	228670
#	256055
#
# Disc length: 3643 seconds
#
# Revision: 0
# Processed by: cddbd v1.5.2PL0 Copyright (c) Steve Scherf et al.
# Submitted via: CDex 1.70beta2
#
DISCID=800e390a
DTITLE=Dale Dubé Arnesen Jakobsen - little waltz
DYEAR=1996
DGENRE=Jazz
TTITLE0=Konsulen av Latvia
TTITLE1=Little waltz
TTITLE2=Liten blues
TTITLE3=Another blues
TTITLE4=13.mai
TTITLE5=Early Autumn
TTITLE6=Opus 3
TTITLE7=B for Ballade
TTITLE8=Nardis
TTITLE9=Voggesong
EXTD=YEAR: 1996
EXTT0=
EXTT1=
EXTT2=
EXTT3=
EXTT4=
EXTT5=
EXTT6=
EXTT7=
EXTT8=
EXTT9=
PLAYORDER=
